<svg version="1.2" xmlns="http://www.w3.org/2000/svg" viewBox="0 0 595 312" width="595" height="312"><style>.a{fill:#fff;stroke:#000;stroke-miterlimit:10;stroke-width:3}</style><path fill-rule="evenodd" d="m237.1 288.8c0-5.9 3.3-9.7 8.8-12.1v-0.3c-5.1-2.2-7.3-6.1-7.3-10.2 0-7.6 6.6-12.7 15.4-12.7 10.1 0 14.8 5.9 14.8 11.9 0 3.8-2 8-7.2 10.5v0.4c5.2 2 8.8 5.9 8.8 11.8 0 8.3-7.1 13.9-17.1 13.9-10.6-0.4-16.2-6.7-16.2-13.2zm24.5-0.4c0-4.8-3.6-7.3-8.8-8.8-4.4 1.2-6.9 4.4-6.9 8.3-0.4 3.8 2.8 7.4 7.7 7.4 4.8 0 8-2.8 8-6.9zm-1.4-22.1c0-3.8-3-6.9-6.7-6.9-3.7 0-6.7 3.1-6.7 6.9 0 3.8 3 6.8 6.7 6.8 3.7 0 6.7-3 6.7-6.8z"/><path  d="m282 301.6c-3 0-5.5-2.6-5.5-5.8 0-3.1 2.5-5.7 5.5-5.7 3 0 5.4 2.6 5.4 5.7 0 3.2-2.4 5.8-5.4 5.8z"/><path  d="m306.7 261.9l-8.8 4.5-1.6-6.7 11.5-5.8h7.4v46.9h-8.5z"/><path  d="m337.5 301.6c-3 0-5.5-2.6-5.5-5.8 0-3.1 2.5-5.7 5.5-5.7 3 0 5.4 2.6 5.4 5.7 0 3.2-2.4 5.8-5.4 5.8z"/><path  d="m362.2 261.9l-8.6 4.5-1.6-6.7 11.3-5.8h7.6v46.9h-8.7z"/><path  d="m392.8 301.6c-3 0-5.4-2.6-5.4-5.8 0-3.1 2.4-5.7 5.4-5.7 3 0 5.4 2.6 5.4 5.7 0 3.2-2.4 5.8-5.4 5.8z"/><path class="a" d="m574.9 247.5h-556.3c-6.9 0-12.4-5.7-12.4-12.4v-217.2c0-6.9 5.7-12.6 12.4-12.6h556.3c6.9 0 12.4 5.8 12.4 12.6v217.2c0 6.9-5.5 12.4-12.4 12.4z"/><path  d="m153.2 175.1c0 8.5-3.6 15.9-10.8 21.9-6.9 5.7-14.6 8.5-23.4 8.5h-30.4c-9.4 0-17.8-3-24.8-8.8-7.4-6.3-11.2-14-11.2-23.4v-22.8h36c0 0.9 0 2 0 3.7-0.2 1.6-0.2 2.9-0.2 3.8 0 7.5 0.7 13.1 1.8 15.9 2.2 5 6.4 7.4 12.9 7.4 3.4 0 6.6-1.3 9.6-4 3-2.5 4.2-5.5 4.2-8.8v-20.1c0-6.9-4.9-11.6-14.9-13.7v-24.8c9.9 0 14.9-4.3 14.9-12.8v-21.2c0-3.6-1.6-6.8-4.7-9.3-3.2-2.3-6.6-3.7-10.2-3.7-6.5 0-10.6 2.9-12.5 9.1-0.7 2.7-1.2 8.6-1.2 17.4h-36v-20.1c0.4-1.7 1.2-4.6 2.7-8.3 2-5.8 5.6-11 10.6-15.6 4.9-4.2 11.1-6.4 19.2-6.4h36c10.1 0 18.9 4 26.3 12.4 4.1 4.5 6.1 10.8 6.1 18.7v29.4c0 4.2-1.8 7.9-5.6 11-1.1 1-4.9 3.3-11 6.6 6.9 4.1 10.8 6.1 11.6 6.8 3.3 2.8 5 6.7 5 11.6z"/><path fill-rule="evenodd" d="m263.3 175.3c0 7.4-3.3 14.3-10.2 20.6q-10.4 9.3-21.5 9.3h-37.3c-7.4 0-14.5-3.3-21.6-9.6-6.9-6.5-10.3-13.4-10.3-20.5v-107.4c0-7 3.4-13.8 10.5-20.3 7.1-6.6 14.1-9.7 21.4-9.7h37.3q10.8 0 21.2 9.4c7.1 6.5 10.4 13.4 10.4 20.6zm-36.7-9.2v-88.7c0-3.5-1.4-6.6-4.2-9.2-2.9-2.6-6-3.9-9.6-3.9-3.6 0-6.8 1.3-9.6 3.9-3 2.6-4.4 5.7-4.4 9.2v88.7q0 5.1 4.2 9.4c2.9 2.5 6.2 3.9 9.6 3.9 3.5 0 6.8-1.4 9.6-4.1 3.2-2.8 4.4-5.8 4.4-9.2z"/><path fill-rule="evenodd" d="m373.9 175.3c0 7.4-3.5 14.3-10.2 20.6q-10.4 9.3-21.8 9.3h-37.1c-7.2 0-14.3-3.3-21.4-9.6-6.9-6.5-10.3-13.4-10.3-20.5v-107.4c0-7 3.4-13.8 10.5-20.3 7.1-6.6 14.2-9.7 21.2-9.7h37.5q10.8 0 21.2 9.4c6.9 6.5 10.4 13.4 10.4 20.6zm-36.5-9.2v-88.7c0-3.5-1.4-6.6-4.3-9.2-2.8-2.6-5.9-3.9-9.6-3.9-3.4 0-6.7 1.3-9.5 3.9-3 2.6-4.4 5.7-4.4 9.2v88.7q0 5.1 4.2 9.4c2.8 2.5 6.1 3.9 9.6 3.9 3.5 0 6.8-1.4 9.6-4.1 3-2.8 4.4-5.8 4.4-9.2z"/><path fill-rule="evenodd" d="m543.9 177.3c0 7-3.3 13.9-10.3 20.5-6.9 6.6-13.6 10.1-20.7 10.1h-41.1c-6.9 0-13.6-3.4-20.7-10.1-7.1-6.6-10.5-13.4-10.5-20.3v-34c0-6.9 3.4-13.5 10.5-20.3 6.9-6.4 13.7-9.9 20.7-9.9h36.5v-33q0-6.4-5.6-10.8-5.1-4-11.7-4c-11 0-16.5 7.1-16.5 20.9v2.1c0 0.6 0 1.2 0.2 1.7h-34.9v-21.1c7.7-19 17.9-28.4 30.3-28.4h44.8c6.6 0 13.4 3.3 19.7 9.6 6.6 6.6 9.7 13.2 9.7 19.8v107.2zm-36.6-6.2v-22.2c0-3.8-1.9-6.8-5.2-9-2.8-1.9-6.4-3-10.4-3q-5.6 0-10.3 3c-3.3 2.4-5.1 5.4-5.1 9v22.2c0 3.4 1.6 6.2 4.7 8.8 3 2 6.3 3.3 9.9 3.3 4.1 0 7.8-1.1 10.9-2.9q5.5-3.4 5.5-9.2z"/><g style="display:none"><path class="a" d="m211.9 22.3h-349.9c-4.3 0-7.8-3.6-7.8-7.8v-136.7c0-4.3 3.6-7.8 7.8-7.8h349.9c4.3 0 7.8 3.6 7.8 7.8v136.7c0 4.3-3.5 7.8-7.8 7.8z"/><path  d="m-100.6-18.6h-14.9v-48.6c-1.6 0.2-4.1 1.3-7.4 3.2h-1.1v-12.1c5.9-2.3 9.9-6.8 12.1-13.4h11.3z"/><path fill-rule="evenodd" d="m-54.2-31.8c0 3.1-1.4 6.1-4.3 8.7q-4.3 3.9-9 3.9h-15.7c-3.1 0-6-1.4-9-4-2.9-2.7-4.4-5.6-4.4-8.6v-45c0-3 1.4-5.9 4.4-8.6 3-2.6 5.9-4.1 8.9-4.1h15.7c3 0 6 1.4 8.9 3.9 2.9 2.7 4.4 5.7 4.4 8.7v45.1zm-15.2-3.9v-37.3c0-1.5-0.6-2.7-1.8-3.8-1.3-1.2-2.6-1.7-4.1-1.7-1.4 0-2.7 0.5-4 1.7-1.2 1.1-1.8 2.3-1.8 3.8v37.3c0 1.4 0.6 2.8 1.8 3.9 1.3 1.1 2.6 1.7 4.1 1.7 1.5 0 2.8-0.7 4.1-1.7 1.1-1.1 1.7-2.4 1.7-3.9z"/><path fill-rule="evenodd" d="m-7.7-31.8c0 3.1-1.4 6.1-4.3 8.7-2.9 2.6-5.9 3.9-9.1 3.9h-15.6c-3.1 0-6.1-1.4-9-4-2.9-2.7-4.5-5.6-4.5-8.6v-45c0-3 1.5-5.9 4.5-8.6 2.9-2.6 5.9-4.1 8.9-4.1h15.6c3.1 0 6.1 1.4 9 3.9 2.9 2.7 4.4 5.7 4.4 8.7v45.1zm-15.3-3.9v-37.3c0-1.5-0.6-2.7-1.9-3.8-1.2-1.2-2.5-1.7-4-1.7-1.4 0-2.8 0.5-4 1.7-1.2 1.1-1.8 2.3-1.8 3.8v37.3c0 1.4 0.6 2.8 1.8 3.9 1.2 1.1 2.6 1.7 4.1 1.7 1.5 0 2.8-0.7 4-1.7q1.8-1.6 1.8-3.9z"/><path fill-rule="evenodd" d="m63.8-30.9c0 2.9-1.4 5.8-4.3 8.6-2.9 2.8-5.9 4.2-8.7 4.2h-17.2q-4.4 0-8.7-4.2c-2.9-2.8-4.4-5.7-4.4-8.6v-14.3c0-2.8 1.4-5.6 4.3-8.5 2.9-2.9 5.9-4.2 8.8-4.2h15.2v-13.9c0-1.8-0.8-3.4-2.4-4.5-1.4-1.1-3.1-1.7-4.9-1.7-4.7 0-6.9 2.9-6.9 8.9v0.8c0 0.3 0 0.5 0.1 0.8h-14.6v-8.8c3.2-7.9 7.4-11.9 12.6-11.9h18.9c2.7 0 5.5 1.3 8.2 4.1 2.7 2.6 4.1 5.5 4.1 8.3v44.9zm-15.4-2.7v-9.3c0-1.5-0.8-2.9-2.2-3.8-1.3-0.8-2.7-1.2-4.3-1.2q-2.5 0-4.3 1.2c-1.5 0.9-2.2 2.3-2.2 3.8v9.3c0 1.4 0.6 2.6 2.1 3.7 1.2 0.9 2.5 1.3 4.1 1.3 1.7 0 3.2-0.4 4.6-1.1 1.3-1 2.2-2.2 2.2-3.9z"/><path  d="m146.2-85l54 31.2-54 31.1v-19.7h-53.9v-22.9h53.9z"/><path fill-rule="evenodd" d="m-3.2 54.1c0-3.5 2-5.8 5.2-7.2v-0.2c-2.9-1.4-4.3-3.7-4.3-6.1 0-4.5 4-7.6 9.3-7.6 6 0 8.8 3.6 8.8 7.1 0 2.3-1.3 4.8-4.4 6.3v0.2c3.1 1.2 5.3 3.5 5.3 7.1 0 4.9-4.2 8.3-10.2 8.3-6.3-0.3-9.7-4-9.7-7.9zm14.6-0.3c0-2.7-2.1-4.3-5.2-5.2-2.6 0.8-4.2 2.6-4.2 4.9-0.1 2.3 1.7 4.5 4.7 4.5 2.9 0 4.7-1.7 4.7-4.2zm-0.7-13.2c0-2.2-1.8-4-4-4-2.2 0-4 1.8-4 4 0 2.3 1.8 4.1 4 4.1 2.2 0 4-1.8 4-4.1z"/><path  d="m23.6 61.7c-1.8 0-3.2-1.5-3.2-3.4 0-1.9 1.4-3.4 3.2-3.4 1.8 0 3.3 1.5 3.3 3.4 0 1.9-1.5 3.4-3.3 3.4z"/><path  d="m38.4 38.1l-5.2 2.6-0.9-4 6.8-3.4h4.4v27.9h-5.1z"/><path  d="m56.8 61.7c-1.8 0-3.3-1.5-3.3-3.4 0-1.9 1.5-3.4 3.3-3.4 1.8 0 3.2 1.5 3.2 3.4 0 1.9-1.4 3.4-3.2 3.4z"/><path  d="m64.3 55.8c1.1 0.6 3.7 1.7 6.4 1.7 4 0 5.7-2.3 5.5-4.4 0-3.3-3.1-4.8-6.3-4.8h-2.5v-3.9h2.3c2.5 0 5.6-1.1 5.6-3.8 0-1.9-1.4-3.6-4.5-3.6-2.3 0-4.5 0.9-5.7 1.7l-1.2-3.8c1.5-1.1 4.6-2.2 8-2.2 5.7 0 8.6 3.2 8.6 6.8 0 2.9-1.7 5.2-5.1 6.5v0.1c3.4 0.6 6.2 3.3 6.2 7 0 4.7-4 8.4-10.8 8.4-3.4 0-6.3-0.9-7.8-2z"/><path  d="m89.8 61.7c-1.8 0-3.2-1.5-3.2-3.4 0-1.9 1.4-3.4 3.2-3.4 1.8 0 3.2 1.5 3.2 3.4 0 1.9-1.4 3.4-3.2 3.4z"/></g><g style="display:none"><path class="a" d="m575.1 481.2h-559.5c-6.9 0-12.5-5.8-12.5-12.5v-218.5c0-6.9 5.8-12.5 12.5-12.5h559.3c6.9 0 12.5 5.7 12.5 12.5v218.5c0.2 6.9-5.6 12.5-12.3 12.5z"/><path  d="m294.7 394c0 5.8-2.2 10.7-7.2 14.6-4.6 3.8-9.7 5.7-15.7 5.7h-20.3c-6.4 0-11.8-1.9-16.6-5.9-4.9-4-7.3-9.2-7.3-15.5v-15.5h24.1c0 0.7 0 1.5 0 2.7 0 1.1-0.2 1.9-0.2 2.6 0 5.1 0.5 8.9 1.3 10.9 1.3 3.2 4.3 4.9 8.8 4.9 2.2 0 4.2-0.8 6.2-2.7 2-1.8 2.9-3.7 2.9-6.1v-13.6q0-7.2-9.7-9.4v-16.6c6.5 0 9.7-2.9 9.7-8.5v-14.4c0-2.2-0.9-4.3-3-6.1-2.3-1.6-4.3-2.4-7.1-2.4-4.1 0-7 2.1-8.3 6.1-0.4 1.8-0.8 5.8-0.8 11.7h-24.1v-13.6c0.3-1.4 1-3.2 1.6-5.6 1.4-4 4-7.5 7.2-10.5 3.3-3.1 7.5-4.4 12.6-4.4h24.3c6.9 0 12.6 2.9 17.6 8.5 2.6 3 4 7.4 4 12.6v19.7c0 3-1.3 5.3-3.7 7.4q-1.3 1.1-7.5 4.4c4.8 2.7 7.5 4.2 8 4.7 2.2 1.7 3.2 4.4 3.2 7.6z"/><path fill-rule="evenodd" d="m368.7 394.2c0 5-2.2 9.7-6.9 13.7-4.6 4.4-9.4 6.3-14.5 6.3h-24.9c-5 0-9.8-2.1-14.4-6.4-4.7-4.2-7.2-8.8-7.2-13.6v-71.9c0-4.8 2.4-9.5 7.2-13.8 4.6-4.3 9.4-6.5 14.2-6.5h24.9q7.5 0 14.4 6.2c4.7 4.3 7.1 9.1 7.1 13.7zm-24.5-6.2v-59.6c0-2.3-1-4.3-3-6.1-2-1.8-4-2.6-6.4-2.6-2.3 0-4.4 0.8-6.4 2.6-1.9 1.8-2.9 3.8-2.9 6.1v59.6q0 3.6 2.9 6.2c2 2 4.1 2.8 6.5 2.8 2.4 0 4.5-1 6.4-2.8 1.9-1.9 2.9-3.8 2.9-6.2z"/><path fill-rule="evenodd" d="m443.1 394.2c0 5-2.3 9.7-6.9 13.7-4.7 4.4-9.5 6.3-14.6 6.3h-24.9c-5 0-9.8-2.1-14.6-6.4-4.4-4.2-7-8.8-7-13.6v-71.9c0-4.8 2.4-9.5 7-13.8 4.8-4.3 9.6-6.5 14.4-6.5h25q7.4 0 14.4 6.2c4.6 4.3 7 9.1 7 13.7v72.3zm-24.6-6.2v-59.7c0-2.4-1-4.3-3.1-6-1.9-2-4.1-2.8-6.4-2.8-2.2 0-4.4 0.8-6.4 2.8-1.9 1.7-3 3.6-3 6v59.7c0 2.2 1.1 4.4 3 6.2 2 1.8 4.2 2.6 6.6 2.6 2.4 0 4.5-1 6.4-2.6 2.1-1.9 2.9-4 2.9-6.2z"/><path fill-rule="evenodd" d="m557.2 395.5c0 4.6-2.4 9.2-6.9 13.7-4.6 4.3-9.4 6.7-13.9 6.7h-27.6c-4.5 0-9.2-2.4-13.8-6.7-4.6-4.5-7-9.1-7-13.7v-22.9c0-4.6 2.2-8.9 6.9-13.6 4.6-4.4 9.4-6.7 13.9-6.7h24.6v-21.9c0-3-1.5-5.4-3.9-7.2-2.2-1.9-4.9-2.7-7.8-2.7-7.5 0-11 4.6-11 14.2v1.3c0 0.5 0 0.8 0.1 1.3h-23.5v-14.1q7.7-19.2 20.2-19.2h30c4.5 0 9 2.3 13.3 6.7 4.2 4.4 6.6 8.8 6.6 13.3v71.5zm-24.5-4.3v-14.7c0-2.6-1.3-4.7-3.5-6.1-2.1-1.3-4.3-2.1-6.9-2.1q-4 0-6.9 2.1c-2.4 1.4-3.5 3.5-3.5 6.1v14.7c0 2.4 1 4.3 3.4 5.9 1.9 1.6 4 2.2 6.5 2.2 2.7 0 5.1-0.6 7.4-1.7 2.1-1.6 3.5-3.7 3.5-6.4z"/><path  d="m109.7 309.6l-86.3 49.9 86.3 49.7v-31.5h86.2v-36.6h-86.2z"/><path fill-rule="evenodd" d="m233.3 522.9c0-5.8 3.4-9.6 8.8-12v-0.3c-5-2.3-7.2-6.1-7.2-10.3 0-7.3 6.7-12.4 15.4-12.4 9.9 0 14.5 5.9 14.5 11.8 0 3.8-2.1 7.8-7.2 10.4v0.3c5.1 2.1 8.8 5.9 8.8 11.9 0 8.1-6.9 13.7-16.9 13.7-10.4-0.5-16.2-6.7-16.2-13.1zm24.6-0.5c0-4.6-3.5-7.2-8.6-8.6-4.5 1.3-7 4.3-7 8.1-0.2 3.9 2.8 7.4 7.6 7.4 5 0 8-2.7 8-6.9zm-1.3-21.8c0-3.8-2.9-6.8-6.6-6.8-3.7 0-6.6 3-6.6 6.8 0 3.7 2.9 6.8 6.6 6.8 3.7 0 6.6-3.1 6.6-6.8z"/><path  d="m302.7 496.4l-8.6 4.3-1.6-6.7 11.3-5.6h7.4v46.3h-8.5z"/><path fill-rule="evenodd" d="m363.1 534.7v-11.8h-20.9v-5.6l18.8-28.9h10.3v27.9h5.9v6.6h-5.9v11.8zm0-31c0-2.6 0-5.3 0.3-7.8h-0.3c-1.5 2.7-2.6 5.2-4 7.8l-8.5 12.6v0.2h12.5z"/><path  d="m278.2 535.5c-3 0-5.4-2.5-5.4-5.7 0-3.1 2.4-5.6 5.4-5.6 2.9 0 5.3 2.5 5.3 5.6 0 3.2-2.4 5.7-5.3 5.7z"/><path  d="m333 535.5c-3 0-5.4-2.5-5.4-5.7 0-3.1 2.4-5.6 5.4-5.6 2.9 0 5.3 2.5 5.3 5.6 0 3.2-2.4 5.7-5.3 5.7z"/></g><g style="display:none"><path class="a" d="m578.3 468.3h-561.7c-7 0-12.6-5.5-12.6-12.5v-439.9c0-7 5.6-12.6 12.6-12.6h561.7c7 0 12.6 5.6 12.6 12.6v439.9c0 7-5.9 12.5-12.6 12.5z"/><path  d="m158.4 181.1c0 5.3-3.5 10.5-10.5 16.3q-10.3 8.1-18.2 8.1h-42.1c-6.9 0-13.4-3.5-20-10.3-6.3-6.9-9.9-13.8-9.9-20.6v-136.9h36.4v132.3q0 12.1 14.8 12.1 5.3 0 9.6-3.4c2.7-2.2 4.3-5.2 4.3-8.7v-60.6h35.4z"/><path fill-rule="evenodd" d="m313.1 95.3q0 10.5-10.9 21.1c-7.1 6.8-14.3 10.3-21.5 10.3h-25.8c-7.1 0-14.2-3.5-21.6-10.3q-10.7-10.6-10.7-21.1v-24.1c0-4.9-3.1-7.3-9.2-7.3q-8.1 0-8.1 7.3v33.4c0 12.9 5.9 23.3 17.7 30.6 7 4.5 18.9 9.1 35.4 13.5 13.1 3.6 21.7 6.3 25.2 8.2 8.1 4 14 10 17.8 18 2.4 6.7 4 11 4.5 12.6v18.3h-37c0-19.7-11.2-32-33.7-36.6-9.7-2-21-2.9-33.8-2.9-10.8 0-18.1 0.6-22 1.7h-6.5v-25.8h15.6q-6-7.8-12.1-15.5-5.4-8.9-5.4-15v-45.1c0-6.4 3.2-12.4 9.5-18.8 6.3-6.1 12.8-9.1 19.2-9.1h24.1c3.8 0 7.1 1.4 10.3 4.9q4 5.5 4.7 6.1c7-7.5 13.5-11 19.9-11h24.9c6.8 0 13.5 3 19.7 9.6 6.6 6.5 9.6 13.1 9.6 20.1zm-35.9-12.2c0-6.5-0.1-10.6-0.8-12.4-1.4-4-4.3-6.1-9.2-6.1-4.6 0-7.7 1.8-9.1 5.6-0.6 2.1-1.1 6.1-1.1 12v3.3c0 5 0.5 8.7 1.4 10.7 1.3 2.9 4.2 4.5 8.8 4.5 4.5 0 7.3-2.1 8.9-5.9 0.7-2.1 1.1-6.1 1.1-11.7z"/><path  d="m425.8 174.1q0 9.9-10.7 20.3c-7.3 7-14.1 10.6-20.7 10.6h-40.3c-6.4 0-12.8-3.1-19.7-9.7-6.7-6.5-10-12.7-10-19.1v-40.4h36.4v31q0 5.9 4.3 10c3 2.7 6.5 4.2 10.7 4.2 3.3 0 6.3-1.6 9.4-4.5 2.8-3 4.4-6.4 4.4-9.6v-91.4c0-3.9-1.2-7.1-4.3-9.8-2.8-2.8-6.5-4-10.3-4-6.6 0-10.7 2.7-12.6 8.3q-1.3 4-1.3 16.9h-36.5v-20.6c7.5-19.1 18-28.7 31.7-28.7h37.3q10.5 0 21.7 10c7.5 6.7 11 13.6 11 20.8z"/><path  d="m542.9 173.5q0 11.2-10.5 20.5-10.6 9.1-22 9.1h-38.3c-7.2 0-14.5-3-21.4-9.4-7-6.2-10.4-13.1-10.4-20.2v-34.5h36.4v26.2c0 4 1.4 7.5 4.3 9.9 2.9 2.7 6.5 3.9 10.5 3.9 3.9 0 7.1-1.2 10.1-3.9 2.7-2.7 4-6.1 4-9.9v-64.1c0-3.1-1.3-5.5-3.9-7.5-2.5-1.8-5.4-2.7-8.2-2.7-5.3 0-8.7 1.6-10.4 4.7-1.1 2.3-1.8 6.3-1.8 12.2h-32.7v-22.4c4.5-9.2 10.1-13.8 16.9-13.8h40.1v-34.5h37.1z"/><path  d="m156.6 325c0 13.1-9.9 29.6-30 50.1-9.5 9.8-19.1 19.2-28.5 28.5h55.8v26.2h-97.4v-22.7c0-1.7 9.2-12.6 27.2-32.5 6.9-8 12.8-14.7 17.1-20.6 2.2-2.2 5.4-5.7 9.9-10.5 6.5-7.5 9.4-14.2 9.4-20.3v-26.1c0-8.8-4.9-13.1-14.8-13.1-6.1 0-10.1 2.1-12.1 6.4-1.2 2.7-1.8 7.6-1.8 14.8v6.1h-35.4v-20.8c0-6.5 3.7-13.2 10.8-19.7 7.2-6.7 13.9-9.9 20.8-9.9h39c6.9 0 13.6 3.3 20.1 10.3 6.6 6.7 9.8 13.7 9.8 20.4z"/><path  d="m265.4 401.4c0 8.3-4.2 15.4-11.8 21.8q-10.7 8.8-23.6 8.8h-32.5c-7.1 0-12.3-1.4-16.2-4.2q-6-4.3-9.4-12.1l-6.2-15.3v-16.9h35.3c0 8.1 0.6 13.6 1.7 16.8 2.1 5.1 6.6 7.6 13.1 7.6 4.1 0 7.5-1.4 9.9-4.3 2.7-3 4.1-6.5 4.1-10.7v-39.4c0-3-1.4-6-4.3-8.9-2.7-2.7-5.6-4.3-8.8-4.3-5.4 0-9.4 3.3-12.1 10.4h-33.6v-87h91.7v23.3h-57v32.9h36.4c6.5 0 12 2.2 16.6 6.7 4.5 4.4 6.7 10.2 6.7 16.4z"/><path fill-rule="evenodd" d="m376.1 399.5c0 7.4-3.4 14.5-10.4 20.7-6.9 6.4-14.2 9.6-21.8 9.6h-37.5c-7.5 0-14.7-3.2-21.7-9.8-7-6.5-10.5-13.2-10.5-20.5v-108.5c0-7.2 3.5-14 10.8-20.4 6.9-6.5 14.2-9.7 21.5-9.7h37.7q11.1 0 21.5 9.4c7 6.5 10.7 13.5 10.7 20.7zm-36.7-9.4v-89.6c0-3.7-1.4-6.6-4.3-9.3-2.9-2.7-6.1-4-9.7-4-3.5 0-6.7 1.3-9.8 4-2.8 2.7-4.4 5.6-4.4 9.3v89.6c0 3.5 1.4 6.7 4.3 9.4 2.9 2.7 6.4 4 9.7 4 3.4 0 6.7-1.3 9.6-4 3-2.9 4.6-5.9 4.6-9.4z"/><path fill-rule="evenodd" d="m547.8 401.5c0 7-3.3 13.7-10.3 20.6q-10.4 10-20.9 10h-41.5q-10.4 0-20.9-10c-7-6.9-10.5-13.6-10.5-20.6v-34.1q0-10.5 10.5-20.6 10.5-10 20.9-10h36.9v-33.4c0-4.3-2-8.1-5.8-10.8-3.3-2.7-7.3-4.1-12-4.1-11 0-16.5 7-16.5 21.2 0 0.6 0 3.3 0 3.8h-35.1v-21.4c7.8-19.1 18-28.5 30.3-28.5h45.3c6.7 0 13.2 3.2 19.7 9.5 6.6 6.6 9.8 13.4 9.8 20.1zm-37.2-6.5v-22.3c0-3.9-1.7-6.7-5.1-9-3-2-6.5-2.8-10.7-2.8-3.8 0-7.2 1.1-10.3 2.8-3.5 2.6-5.1 5.5-5.1 9v22.3q0 5.4 4.6 8.8c3 2.2 6.4 3.2 10 3.2 4 0 7.8-1 11-2.8 3.9-2 5.6-5.1 5.6-9.2z"/><path fill-rule="evenodd" d="m224.2 518.6c0-6.4 3.7-10.5 9.5-12.9v-0.4c-5.3-2.3-7.9-6.5-7.9-11 0-7.9 7.2-13.5 16.6-13.5 10.9 0 15.8 6.4 15.8 12.7 0 4.2-2.2 8.5-7.8 11.4v0.1c5.6 2.3 9.4 6.4 9.4 12.8 0 8.8-7.3 15-18.2 15-11.3-0.3-17.4-7-17.4-14.2zm26.5-0.3c0-5-3.8-7.7-9.4-9.3-4.6 1.3-7.3 4.6-7.3 8.8-0.3 4.1 3 8 8.3 8 5.1 0 8.4-3.4 8.4-7.5zm-1.3-23.8c0-4.1-3.2-7.3-7.1-7.3-4 0-7.2 3.2-7.2 7.3 0 4.1 3.2 7.3 7.2 7.3 3.9 0 7.1-3.2 7.1-7.3z"/><path  d="m272.6 532.5c-3.2 0-5.8-2.7-5.8-6.1 0-3.4 2.6-6.1 5.8-6.1 3.1 0 5.7 2.7 5.7 6.1 0 3.4-2.6 6.1-5.7 6.1z"/><path  d="m299 490.2l-9.4 4.6-1.6-7.2 12.2-6h7.9v50.1h-9.1z"/><path  d="m332 532.5c-3.2 0-5.8-2.7-5.8-6.1 0-3.4 2.6-6.1 5.8-6.1 3.2 0 5.8 2.7 5.8 6.1 0 3.4-2.6 6.1-5.8 6.1z"/><path  d="m343.5 531.7v-5.9l5.8-5.5c11.9-10.8 17.4-16.9 17.4-23.6 0-4.3-2.4-8.3-8.8-8.3-4.5 0-8 2.3-10.7 4.2l-2.9-6.5c3.7-3.1 9.1-5.3 15.5-5.3 11 0 16.6 6.8 16.6 15.1 0 9-6.4 15.8-14.8 23.8l-4.5 3.8v0.3h20.4v7.9z"/><path  d="m391 532.5c-3.2 0-5.8-2.7-5.8-6.1 0-3.4 2.6-6.1 5.8-6.1 3.2 0 5.8 2.7 5.8 6.1 0 3.4-2.6 6.1-5.8 6.1z"/></g><path  d="m-34.2 778.7c-1.8 0-3.3-1.6-3.3-3.5 0-2 1.5-3.6 3.3-3.6 1.9 0 3.4 1.6 3.4 3.6 0 1.9-1.5 3.5-3.4 3.5z"/></svg>