<svg version="1.2" xmlns="http://www.w3.org/2000/svg" viewBox="0 0 726 814" width="726" height="814"><style>.a{fill:#fff;stroke:#000;stroke-miterlimit:10;stroke-width:8}.b{fill:#fff;stroke:#000;stroke-miterlimit:10;stroke-width:5.6}</style><path class="a" d="m1409.2 600.2v-528.6c0-6.6 5.4-11.8 11.8-11.8h206.5c6.6 0 11.8 5.4 11.8 11.8v528.6c0 6.6-5.4 11.8-11.8 11.8h-206.5c-6.4-0.1-11.8-5.3-11.8-11.8z"/><path  d="m1505.7 394.8h-22.5v-73.4c-2.5 0.3-6.3 1.9-11.3 4.8h-1.7v-18.4c8.8-3.4 14.9-10.2 18.3-20.2h17.1v107.2z"/><path fill-rule="evenodd" d="m1575.8 375c0 4.7-2.2 9.1-6.6 13-4.3 4-8.9 6-13.7 6h-23.7c-4.6 0-9.2-2.1-13.6-6.1-4.4-4-6.7-8.3-6.7-12.9v-68.1c0-4.5 2.3-8.8 6.7-12.9 4.5-4.1 9-6.2 13.5-6.2h23.9q6.9 0 13.5 6c4.4 4.1 6.7 8.5 6.7 13zm-23.2-5.9v-56.4c0-2.2-0.9-4.1-2.7-5.8-1.9-1.7-3.8-2.4-6.1-2.4-2.2 0-4.2 0.8-6.1 2.4-1.9 1.6-2.8 3.6-2.8 5.8v56.4c0 2.3 0.9 4.2 2.7 5.9 1.9 1.7 3.9 2.4 6.2 2.4 2.2 0 4.2-0.9 6.1-2.5 1.9-1.6 2.7-3.6 2.7-5.8z"/><path fill-rule="evenodd" d="m1556.5 548.8q0 6.6-6.6 12.9c-4.4 4.2-8.8 6.4-13.1 6.4h-26.1c-4.3 0-8.7-2.2-13.1-6.4-4.4-4.2-6.7-8.5-6.7-12.9v-21.5c0-4.3 2.2-8.6 6.6-12.8 4.4-4.2 8.8-6.4 13.2-6.4h23.1v-20.9c0-2.7-1.2-5.1-3.5-6.8-2.2-1.7-4.6-2.4-7.4-2.4-6.9 0-10.5 4.4-10.5 13.3v1.3c0 0.4 0 0.8 0.1 1.2h-22.1v-13.4q7.3-18 19.2-18h28.4c4.2 0 8.3 2.1 12.4 6.2 4.1 4.1 6.2 8.3 6.2 12.5zm-23.2-4.1v-14c0-2.3-1.1-4.3-3.3-5.7-2-1.3-4.1-1.9-6.6-1.9-2.4 0-4.6 0.6-6.5 1.9q-3.3 2.3-3.3 5.7v14c0 2.2 1 4 3 5.6 1.9 1.4 3.9 2.1 6.3 2.1q3.9 0 6.9-1.8c2.3-1.5 3.5-3.4 3.5-5.9z"/><path  d="m1477.3 162.7l47-81.5 46.9 81.5h-29.5v81.4h-34.9v-81.4z"/><path class="a" d="m1754.5 600.2v-528.6c0-6.6 5.4-11.8 11.8-11.8h206.5c6.6 0 11.8 5.4 11.8 11.8v528.6c0 6.6-5.4 11.8-11.8 11.8h-206.5c-6.4-0.1-11.8-5.3-11.8-11.8z"/><path  d="m1959.5 438.6l-90 155.8-89.9-155.8h56.7v-378.8h66.5v378.8z"/><path class="a" d="m2093.5 600.2v-528.6c0-6.6 5.4-11.8 11.8-11.8h206.5c6.6 0 11.8 5.4 11.8 11.8v528.6c0 6.6-5.4 11.8-11.8 11.8h-206.5c-6.4-0.1-11.8-5.3-11.8-11.8z"/><path  d="m2118.7 232.3l89.9-156 89.9 156h-56.7v155.7h-66.5v-155.7z"/><path  d="m2298.5 438.6l-89.9 155.8-89.9-155.8h56.6v-155.8h66.5v155.8z"/><path class="b" d="m679.4 301h-634.3c-7.9 0-14.2-6.5-14.2-14.2v-247.8c0-7.9 6.5-14.2 14.2-14.2h634.3c7.9 0 14.2 6.5 14.2 14.2v247.8c0 7.8-6.4 14.2-14.2 14.2z"/><path  d="m164.6 226.7h-27v-88.1c-3.1 0.4-7.5 2.2-13.5 5.8h-2v-22.1c10.6-4.1 17.8-12.2 22-24.2h20.5z"/><path fill-rule="evenodd" d="m248.8 202.9c0 5.6-2.6 10.9-7.9 15.6-5.2 4.8-10.7 7.2-16.4 7.2h-28.4c-5.5 0-11-2.5-16.3-7.3-5.3-4.8-8-10-8-15.5v-81.7c0-5.4 2.7-10.6 8-15.5 5.4-4.9 10.8-7.4 16.2-7.4h28.4c5.5 0 10.9 2.3 16.2 7.2 5.3 4.9 8 10.2 8 15.6v81.8zm-27.7-7v-67.6q0-3.9-3.3-6.9c-2.2-2-4.6-2.9-7.3-2.9-2.6 0-5 0.9-7.3 2.9-2.3 2-3.4 4.3-3.4 6.9v67.6c0 2.7 1.1 5 3.3 7 2.2 2 4.7 2.9 7.4 2.9 2.6 0 5-1.1 7.3-3.1 2.2-1.9 3.3-4.1 3.3-6.8z"/><path fill-rule="evenodd" d="m378.2 204.6c0 5.3-2.6 10.5-7.9 15.5-5.3 5-10.6 7.6-15.7 7.6h-31.4c-5.2 0-10.5-2.6-15.7-7.6-5.3-5-8-10.2-8-15.5v-25.8c0-5.2 2.6-10.3 7.9-15.4 5.3-5.1 10.6-7.6 15.9-7.6h27.7v-25.1c0-3.3-1.4-6.1-4.2-8.2-2.6-2-5.5-2.9-8.9-2.9-8.3 0-12.6 5.3-12.6 16v1.5c0 0.5 0 0.9 0.1 1.4h-26.5v-16.1c5.9-14.4 13.5-21.6 23-21.6h34.2c5 0 10 2.5 14.9 7.4 4.9 4.9 7.4 10 7.4 15v81.5h-0.2zm-27.8-5v-16.8c0-2.8-1.3-5.2-4-6.8-2.3-1.5-4.9-2.2-7.9-2.2-3 0-5.5 0.7-7.8 2.2-2.6 1.8-4 4.1-4 6.8v16.8c0 2.6 1.2 4.8 3.6 6.7 2.2 1.6 4.7 2.5 7.5 2.5 3.2 0 5.9-0.7 8.3-2.1 2.9-1.7 4.3-4 4.3-7.1z"/><path  d="m560.4 106.5l97.8 56.5-97.8 56.3v-35.5h-97.7v-41.7h97.7z"/><path class="b" d="m679.4 702.2h-634.3c-7.9 0-14.2-6.5-14.2-14.2v-247.8c0-7.9 6.5-14.2 14.2-14.2h634.3c7.9 0 14.2 6.5 14.2 14.2v247.8c0 7.9-6.4 14.2-14.2 14.2z"/><path  d="m402.2 604c0 6.5-2.7 12.1-8.2 16.6-5.2 4.3-11 6.5-17.7 6.5h-23.3c-7.3 0-13.5-2.2-18.9-6.7-5.6-4.7-8.5-10.7-8.5-17.7v-17.5h27.4c0 0.7 0 1.6 0 2.9 0 1.3-0.1 2.2-0.1 2.9 0 5.9 0.5 10 1.4 12.2 1.5 3.8 4.8 5.6 9.9 5.6 2.6 0 4.9-0.9 7.2-2.9 2.2-2 3.3-4.2 3.3-6.8v-15.4c0-5.4-3.8-8.9-11.3-10.6v-18.9c7.5 0 11.3-3.3 11.3-9.7v-16.2c0-2.7-1.2-5-3.5-6.9-2.3-1.9-4.9-2.8-7.8-2.8-4.9 0-8.1 2.3-9.5 6.9-0.6 2.1-0.9 6.6-0.9 13.3h-27.5v-15.4c0.4-1.4 1.1-3.5 1.9-6.3 1.6-4.5 4.5-8.3 8.2-11.9 3.6-3.3 8.5-4.9 14.4-4.9h27.5c7.8 0 14.4 3.2 20 9.5 3.1 3.5 4.6 8.3 4.6 14.3v22.4c0 3.3-1.4 6-4.2 8.3-0.9 0.7-3.8 2.5-8.5 5 5.4 3.1 8.5 4.7 8.9 5.2 2.6 2.1 3.8 5 3.8 8.8v30.2z"/><path fill-rule="evenodd" d="m486 604.1c0 5.6-2.6 10.9-7.9 15.6-5.2 4.8-10.7 7.2-16.4 7.2h-28.4c-5.5 0-11-2.5-16.3-7.3-5.3-4.8-8-10-8-15.5v-81.7c0-5.4 2.7-10.6 8-15.5 5.4-4.9 10.8-7.4 16.2-7.4h28.4c5.5 0 10.9 2.3 16.2 7.2 5.3 4.9 8 10.2 8 15.6v81.8zm-27.8-7v-67.6q0-3.9-3.3-6.9c-2.2-2-4.6-2.9-7.3-2.9-2.6 0-5 0.9-7.3 2.9-2.2 2-3.4 4.3-3.4 6.9v67.6c0 2.7 1.1 5 3.3 7 2.2 2 4.7 2.9 7.4 2.9 2.6 0 5-1.1 7.3-3.1 2.3-1.9 3.3-4.1 3.3-6.8z"/><path fill-rule="evenodd" d="m615.4 605.8c0 5.3-2.6 10.5-7.9 15.5-5.3 5-10.6 7.6-15.7 7.6h-31.4c-5.2 0-10.5-2.6-15.7-7.6-5.3-5-8-10.2-8-15.5v-25.8c0-5.2 2.6-10.3 7.9-15.4 5.3-5 10.6-7.6 15.9-7.6h27.7v-25.1c0-3.3-1.4-6.1-4.2-8.2-2.6-2-5.5-2.9-8.9-2.9-8.3 0-12.6 5.3-12.6 16v1.5c0 0.5 0 0.9 0.1 1.4h-26.5v-16.1c5.9-14.4 13.5-21.6 23-21.6h34.2c5 0 10 2.5 14.9 7.4 4.9 4.9 7.4 10 7.4 15v81.5h-0.2zm-27.8-4.9v-16.8c0-2.8-1.3-5.2-4-6.8-2.3-1.5-4.9-2.2-7.9-2.2-2.9 0-5.5 0.7-7.8 2.2-2.6 1.8-4 4.1-4 6.8v16.8c0 2.6 1.2 4.8 3.6 6.7 2.2 1.6 4.7 2.5 7.5 2.5 3.2 0 5.9-0.7 8.3-2.1 2.9-1.7 4.3-4.1 4.3-7.1z"/><path  d="m175.3 620.6l-97.8-56.4 97.8-56.5v35.6h97.7v41.7h-97.7z"/><path fill-rule="evenodd" d="m1449.4 698.8c0-6.6 3.8-11 9.9-13.7v-0.2c-5.5-2.7-8-7-8-11.6 0-8.6 7.6-14.4 17.6-14.4 11.3 0 16.5 6.8 16.5 13.3 0 4.4-2.3 9.1-8.1 11.9v0.2c5.7 2.2 10 6.7 10 13.3 0 9.4-7.9 15.7-19.2 15.7-12.4-0.1-18.7-7.2-18.7-14.5zm27.7-0.5c0-5.3-4-8.3-9.8-9.9-4.9 1.5-7.8 4.9-7.8 9.2-0.2 4.4 3.2 8.5 8.8 8.5 5.3 0 8.8-3.3 8.8-7.8zm-16.4-25.5c0 4.3 3.6 6.9 8.6 8.2 3.6-1.1 6.6-4 6.6-7.9 0-3.6-2.2-7.4-7.5-7.4-5.1 0-7.7 3.3-7.7 7.1z"/><path  d="m1494.1 706.8c0-3.7 2.6-6.4 6.1-6.4 3.6 0 6.1 2.6 6.1 6.4 0 3.6-2.4 6.4-6.1 6.4-3.6 0-6.1-2.8-6.1-6.4z"/><path  d="m1512.5 712.3v-6.1l6.2-5.7c12.4-11.5 18.2-17.8 18.3-24.8 0-4.7-2.5-8.8-9.4-8.8-4.6 0-8.6 2.3-11.2 4.4l-2.9-7c3.8-3.1 9.5-5.4 16.2-5.4 11.6 0 17.3 7.4 17.3 15.9 0 9.2-6.6 16.7-15.8 25.2l-4.6 4v0.2h21.6v8.2h-35.7z"/><path  d="m1556.5 706.8c0-3.7 2.6-6.4 6.1-6.4 3.6 0 6.1 2.6 6.1 6.4 0 3.6-2.4 6.4-6.1 6.4-3.6 0-6.1-2.8-6.1-6.4z"/><path  d="m1575 712.3v-6.1l6.2-5.7c12.4-11.5 18.2-17.8 18.3-24.8 0-4.7-2.5-8.8-9.4-8.8-4.6 0-8.6 2.3-11.2 4.4l-2.9-7c3.8-3.1 9.5-5.4 16.2-5.4 11.6 0 17.3 7.4 17.3 15.9 0 9.2-6.6 16.7-15.8 25.2l-4.6 4v0.2h21.6v8.2h-35.7z"/><path  d="m1619 706.8c0-3.7 2.6-6.4 6.1-6.4 3.6 0 6.1 2.6 6.1 6.4 0 3.6-2.4 6.4-6.1 6.4-3.6 0-6.1-2.8-6.1-6.4z"/><path fill-rule="evenodd" d="m1794.5 698.8c0-6.6 3.8-11 9.9-13.7v-0.2c-5.5-2.7-8-7-8-11.6 0-8.6 7.6-14.4 17.6-14.4 11.3 0 16.5 6.8 16.5 13.3 0 4.4-2.3 9.1-8.1 11.9v0.2c5.7 2.2 10 6.7 10 13.3 0 9.4-7.9 15.7-19.2 15.7-12.3-0.1-18.7-7.2-18.7-14.5zm27.8-0.5c0-5.3-4-8.3-9.8-9.9-4.9 1.5-7.8 4.9-7.8 9.2-0.2 4.4 3.2 8.5 8.8 8.5 5.3 0 8.8-3.3 8.8-7.8zm-16.4-25.5c0 4.3 3.6 6.9 8.6 8.2 3.6-1.1 6.6-4 6.6-7.9 0-3.6-2.2-7.4-7.5-7.4-5.2 0-7.7 3.3-7.7 7.1z"/><path  d="m1839.3 706.8c0-3.7 2.6-6.4 6.1-6.4 3.6 0 6.1 2.6 6.1 6.4 0 3.6-2.4 6.4-6.1 6.4-3.6 0-6.1-2.8-6.1-6.4z"/><path  d="m1857.7 712.3v-6.1l6.2-5.7c12.4-11.5 18.2-17.8 18.3-24.8 0-4.7-2.5-8.8-9.4-8.8-4.6 0-8.6 2.3-11.2 4.4l-2.9-7c3.8-3.1 9.5-5.4 16.2-5.4 11.6 0 17.3 7.4 17.3 15.9 0 9.2-6.6 16.7-15.8 25.2l-4.6 4v0.2h21.6v8.2h-35.7z"/><path  d="m1901.7 706.8c0-3.7 2.6-6.4 6.1-6.4 3.6 0 6.1 2.6 6.1 6.4 0 3.6-2.4 6.4-6.1 6.4-3.6 0-6.1-2.8-6.1-6.4z"/><path  d="m1922.2 702c2 1.2 7 3.2 12 3.2 7.6 0 10.7-4.3 10.6-8.4 0-6.2-5.8-8.9-11.9-8.9h-4.6v-7.3h4.4c4.6 0 10.4-2.1 10.4-7.4 0-3.6-2.7-6.6-8.4-6.6-4.3 0-8.6 1.9-10.8 3.3l-2.3-7.2c3-2.1 8.8-4 15.1-4 10.8 0 16.4 6 16.4 12.9 0 5.5-3.2 10-9.7 12.3v0.2c6.4 1.1 11.6 6 11.6 13.1 0 8.9-7.4 15.9-20.5 15.9-6.4 0-11.9-1.8-14.7-3.6z"/><path  d="m1964.1 706.8c0-3.7 2.6-6.4 6.1-6.4 3.6 0 6.1 2.6 6.1 6.4 0 3.6-2.4 6.4-6.1 6.4-3.5 0-6.1-2.8-6.1-6.4z"/><path fill-rule="evenodd" d="m2117.7 710.3c0-6.6 3.8-11 9.9-13.7v-0.2c-5.5-2.7-8-7-8-11.6 0-8.6 7.6-14.4 17.6-14.4 11.3 0 16.5 6.8 16.5 13.3 0 4.4-2.3 9.1-8.1 11.9v0.2c5.7 2.2 10 6.7 10 13.3 0 9.4-7.9 15.7-19.2 15.7-12.3-0.1-18.7-7.1-18.7-14.5zm27.7-0.4c0-5.3-4-8.3-9.8-9.9-4.9 1.5-7.8 4.9-7.8 9.2-0.2 4.4 3.2 8.5 8.8 8.5 5.3 0 8.8-3.3 8.8-7.8zm-16.4-25.5c0 4.3 3.6 6.9 8.6 8.2 3.6-1.1 6.6-4 6.6-7.9 0-3.6-2.2-7.4-7.5-7.4-5.1 0-7.7 3.3-7.7 7.1z"/><path  d="m2162.4 718.3c0-3.7 2.6-6.4 6.1-6.4 3.6 0 6.1 2.6 6.1 6.4 0 3.6-2.4 6.4-6.1 6.4-3.6 0-6.1-2.7-6.1-6.4z"/><path  d="m2180.8 723.8v-6.1l6.2-5.7c12.4-11.5 18.2-17.8 18.3-24.8 0-4.7-2.5-8.8-9.4-8.8-4.6 0-8.6 2.3-11.2 4.4l-2.9-7c3.8-3.1 9.5-5.4 16.2-5.4 11.6 0 17.3 7.4 17.3 15.9 0 9.2-6.6 16.7-15.8 25.2l-4.6 4v0.2h21.6v8.2h-35.7z"/><path  d="m2224.8 718.3c0-3.7 2.6-6.4 6.1-6.4 3.6 0 6.1 2.6 6.1 6.4 0 3.6-2.4 6.4-6.1 6.4-3.6 0-6.1-2.7-6.1-6.4z"/><path fill-rule="evenodd" d="m2265.2 723.8v-13.3h-23.8v-6.5l21.4-32.8h11.7v31.8h6.8v7.5h-6.8v13.3zm0-35.1c0-3 0.1-6.1 0.3-9.1h-0.3c-1.6 3.3-3 6-4.6 8.9l-9.6 14.4-0.1 0.2h14.3z"/><path  d="m2287.3 718.3c0-3.7 2.6-6.4 6.1-6.4 3.6 0 6.1 2.6 6.1 6.4 0 3.6-2.4 6.4-6.1 6.4-3.6 0-6.1-2.7-6.1-6.4z"/><path fill-rule="evenodd" d="m271.4 372.3c0-6.6 3.8-11 9.9-13.7v-0.2c-5.5-2.7-8-7-8-11.6 0-8.6 7.6-14.4 17.6-14.4 11.3 0 16.5 6.8 16.5 13.3 0 4.4-2.3 9.1-8.1 11.9v0.2c5.7 2.2 10 6.7 10 13.3 0 9.4-7.9 15.7-19.2 15.7-12.3-0.1-18.7-7.1-18.7-14.5zm27.7-0.5c0-5.3-4-8.3-9.8-9.9-4.9 1.5-7.8 4.9-7.8 9.2-0.2 4.4 3.2 8.5 8.8 8.5 5.3 0.1 8.8-3.3 8.8-7.8zm-16.4-25.5c0 4.3 3.6 6.9 8.6 8.2 3.6-1.1 6.6-4 6.6-7.9 0-3.6-2.2-7.4-7.5-7.4-5.1 0-7.7 3.3-7.7 7.1z"/><path  d="m316.1 380.3c0-3.7 2.6-6.4 6.1-6.4 3.6 0 6.1 2.6 6.1 6.4 0 3.6-2.4 6.4-6.1 6.4-3.6 0-6.1-2.7-6.1-6.4z"/><path  d="m334.5 385.8v-6.1l6.2-5.7c12.4-11.5 18.2-17.8 18.3-24.8 0-4.7-2.5-8.8-9.4-8.8-4.6 0-8.6 2.3-11.2 4.4l-2.9-7c3.8-3.1 9.5-5.4 16.2-5.4 11.6 0 17.3 7.4 17.3 15.9 0 9.2-6.6 16.7-15.8 25.2l-4.6 4v0.2h21.6v8.2h-35.7z"/><path  d="m378.5 380.3c0-3.7 2.6-6.4 6.1-6.4 3.6 0 6.1 2.6 6.1 6.4 0 3.6-2.4 6.4-6.1 6.4-3.6 0-6.1-2.7-6.1-6.4z"/><path  d="m430.4 341.5h-20.2l-1.5 10.5c1.2-0.2 2.3-0.2 3.8-0.2 4.6 0 9.2 1.1 12.8 3.4 4 2.5 6.9 7 6.9 13.3 0 10-8.3 18.2-21.3 18.2-6.1 0-11.2-1.5-13.9-3.1l2-7.5c2.3 1.2 6.8 2.8 11.6 2.8 5.8 0 11.4-3.3 11.4-9.6 0-6-4.4-9.9-15-9.9-2.9 0-5.1 0.2-7.2 0.5l3.5-26.5h27.2v8.1z"/><path  d="m441 380.3c0-3.7 2.6-6.4 6.1-6.4 3.6 0 6.1 2.6 6.1 6.4 0 3.6-2.4 6.4-6.1 6.4-3.6 0-6.1-2.7-6.1-6.4z"/><path fill-rule="evenodd" d="m275.5 770.7c0-6.6 3.8-11 9.9-13.7v-0.2c-5.5-2.7-8-7-8-11.6 0-8.6 7.6-14.4 17.6-14.4 11.3 0 16.5 6.8 16.5 13.3 0 4.4-2.3 9.1-8.1 11.9v0.2c5.7 2.2 10 6.7 10 13.3 0 9.4-7.9 15.7-19.2 15.7-12.4-0.1-18.7-7.2-18.7-14.5zm27.7-0.5c0-5.3-4-8.3-9.8-9.9-4.9 1.5-7.8 4.9-7.8 9.2-0.2 4.4 3.2 8.5 8.8 8.5 5.3 0 8.8-3.3 8.8-7.8zm-16.4-25.5c0 4.3 3.6 6.9 8.6 8.2 3.6-1.1 6.6-4 6.6-7.9 0-3.6-2.2-7.4-7.5-7.4-5.1 0-7.7 3.3-7.7 7.1z"/><path  d="m320.2 778.7c0-3.7 2.6-6.4 6.1-6.4 3.6 0 6.1 2.6 6.1 6.4 0 3.6-2.4 6.4-6.1 6.4-3.6 0-6.1-2.8-6.1-6.4z"/><path  d="m338.6 784.2v-6.1l6.2-5.7c12.4-11.5 18.2-17.8 18.3-24.8 0-4.7-2.5-8.8-9.4-8.8-4.6 0-8.6 2.3-11.2 4.4l-2.9-7c3.8-3.1 9.5-5.4 16.2-5.4 11.6 0 17.3 7.4 17.3 15.9 0 9.2-6.6 16.7-15.8 25.2l-4.6 4v0.2h21.6v8.2h-35.7z"/><path  d="m382.6 778.7c0-3.7 2.6-6.4 6.1-6.4 3.6 0 6.1 2.6 6.1 6.4 0 3.6-2.4 6.4-6.1 6.4-3.6 0-6.1-2.8-6.1-6.4z"/><path fill-rule="evenodd" d="m433.1 738.6c-1.5 0-3.1 0-5.1 0.2-11 1.3-16.3 8.1-17.6 15.4h0.2c2.6-3 6.6-5.1 11.8-5.1 9.1 0 16.1 6.5 16.1 17.1 0 10-7.4 18.8-18.5 18.8-12.8 0-19.8-9.7-19.8-22.6 0-10.1 3.6-18.4 9.1-23.6 4.9-4.5 11.2-7.1 18.7-7.8 2.2-0.2 3.8-0.2 5-0.2zm-4.7 28.3c0-6.1-3.3-10.4-9.1-10.4-3.7 0-7 2.3-8.6 5.4-0.4 0.8-0.6 1.8-0.6 3.2 0.2 7 3.5 12.6 9.9 12.6 5.1-0.1 8.4-4.5 8.4-10.8z"/><path  d="m445.1 778.7c0-3.7 2.6-6.4 6.1-6.4 3.6 0 6.1 2.6 6.1 6.4 0 3.6-2.4 6.4-6.1 6.4-3.6 0-6.1-2.8-6.1-6.4z"/></svg>