<svg version="1.2" xmlns="http://www.w3.org/2000/svg" viewBox="0 0 660 1284" width="660" height="1284"><style>.a{fill:#1f1a17}.b{fill:#fff}.c{fill:#f00}</style><path class="a" d="m614.9 0.9c5 0 9.8 1.2 14.3 2.7 3.9 1.5 8.1 4.4 11.6 7.7 7.1 7.1 10.4 16.9 10.4 25.6v488c0 5-1.2 9.2-2.7 13.7-1.5 4.4-4.4 8.1-7.7 11.6-7.1 7.1-16.4 11-25.6 11h-106.6c-5 0-9.8-1.2-14.3-2.7-3.9-2.3-8.1-5-11.6-8.1-7.1-6.5-10.4-16.4-10.4-25.2v-488c0-5 1.2-9.2 2.7-13.7 1.5-4.4 4.4-8.3 7.7-11.9 7.1-6.5 16.4-10.4 25.6-10.4"/><path class="b" d="m614.9 9.8c9.2-1.2 22.9 8.1 25.6 16.9 1.2 3.3 1.5 6.5 1.5 10.4v488c1.2 8.9-8.1 22.9-16.9 25.2-3.3 1.5-6.5 2.3-10.4 2.3h-106.5c-9.2 1.2-22.9-8.1-25.6-16.9-1.2-3.3-1.5-7.1-1.5-10.4v-488.2c-1.2-8.9 8.1-22.9 16.9-25.2 3.3-1.5 6.5-2.3 10.4-2.3"/><path class="c" d="m642 265.5v-42.2l-161.1 73.2v42"/><path class="a" d="m142.5 0.9c5 0 9.8 1.2 14.3 2.7 3.9 1.5 8.3 4.4 11.6 7.7 7.1 7.1 10.4 16.9 10.4 25.6v488c0 5-1.2 9.2-2.7 13.7-1.5 4.4-4.4 8.1-7.7 11.6-7.1 7.1-16.4 11-25.6 11h-106.6c-5 0-9.8-1.2-14.3-2.7-3.9-2.3-8.1-5-11.6-8.1-7-6.6-10.3-16.5-10.3-25.3v-488c0-5 1.2-9.2 2.7-13.7 1.5-4.4 4.4-8.1 7.7-11.9 7.1-6.6 16.4-10.4 25.6-10.4"/><path class="b" d="m142.5 9.8c9.2-1.2 22.9 8.3 25.6 16.9 1.2 3.3 1.5 6.5 1.5 10.4v488c1.2 8.9-8.3 22.9-16.9 25.2-3.3 1.5-6.5 2.3-10.4 2.3h-106.5c-9.2 1.2-22.9-8.1-25.6-16.9-1.2-3.3-1.5-7.1-1.5-10.4v-488.2c-1.2-8.9 8.3-22.9 16.9-25.2 3.3-1.5 6.5-2.3 10.4-2.3"/><path class="c" d="m169.8 330.2v-42l-161.1 73v42.2"/><path class="c" d="m169.8 246v-42.1l-161.1 72.8v42.1"/><path class="c" d="m169.8 160.2v-42l-161.1 73.2v42.1"/><path class="a" d="m378.8 0.9c5 0 9.8 1.2 14.3 2.7 3.9 1.5 8.3 4.4 11.6 7.7 7.1 7.1 10.4 16.9 10.4 25.6v488c0 5-1.2 9.2-2.7 13.7-1.5 4.4-4.4 8.1-7.7 11.6-7.1 7.1-16.4 11-25.6 11h-106.6c-5 0-9.8-1.2-14.3-2.7-3.9-2.3-8.3-5-11.6-8.1-7.1-6.5-10.4-16.4-10.4-25.2v-488c0-5 1.2-9.2 2.7-13.7 1.5-4.4 4.4-8.3 7.7-11.9 7.1-6.5 16.4-10.4 25.6-10.4"/><path class="b" d="m378.8 9.8c9.2-1.2 22.9 8.1 25.6 16.9 1.2 3.3 1.5 6.5 1.5 10.4v488c1.2 8.9-8.3 22.9-16.9 25.2-3.3 1.5-6.5 2.3-10.4 2.3h-106.5c-9.2 1.2-22.9-8.3-25.6-16.9-1.2-3.3-1.5-7.1-1.5-10.4v-488.2c-1.2-8.9 8.3-22.9 16.9-25.2 3.3-1.5 6.5-2.3 10.4-2.3"/><path class="c" d="m406.1 307.5v-42l-161.1 73v42.2"/><path class="c" d="m406.1 223.3v-42.1l-161.1 72.7v42"/><path class="a" d="m36 651.9c-5 0-9.8 1.2-14.3 2.7-3.9 1.5-8.3 4.4-11.6 7.7-7.1 7.1-10.4 16.9-10.4 25.6v488c0 5 1.2 9.2 2.7 13.7 1.5 4.5 4.4 8.1 7.7 11.6 7.1 7.1 16.4 11 25.6 11h106.5c5 0 9.8-1.2 14.3-2.7 3.9-2.3 8.1-5 11.6-8.1 7.1-6.5 10.4-16.4 10.4-25.2v-488c0-5-1.2-9.2-2.7-13.7-1.5-4.4-4.4-8.1-7.7-11.9-7.1-6.7-16.4-10.5-25.6-10.5"/><path class="b" d="m36 660.8c-9.2-1.2-22.9 8.3-25.6 16.9-1.2 3.3-1.5 6.5-1.5 10.4v488c-1.2 8.9 8.3 22.9 16.9 25.2 3.3 1.5 6.5 2.3 10.4 2.3h106.5c9.2 1.2 22.9-8.1 25.6-16.9 1.2-3.3 1.5-7.1 1.5-10.4v-488.2c1.2-8.9-8.3-22.9-16.9-25.2-3.3-1.5-6.5-2.3-10.4-2.3"/><path class="c" d="m8.6 981.2v-42l161.2 73v42.2"/><path class="c" d="m8.6 897v-42.1l161.2 72.8v42.1"/><path class="c" d="m8.6 811.2v-42l161.2 73.2v42.1"/><path class="a" d="m510.6 651.9c-5 0-9.8 1.2-14.3 2.7-3.9 1.5-8.1 4.4-11.6 7.7-7.1 7.1-10.4 16.9-10.4 25.6v488c0 5 1.2 9.2 2.7 13.7 1.5 4.4 4.4 8.1 7.7 11.6 7.1 7.1 16.4 11 25.6 11h106.5c5 0 9.8-1.2 14.3-2.7 3.9-2.3 8.1-5 11.6-8.1 7.1-6.5 10.4-16.4 10.4-25.2v-488c0-5-1.2-9.2-2.7-13.7-1.5-4.4-4.4-8.3-7.7-11.9-7.1-6.5-16.4-10.4-25.6-10.4"/><path class="b" d="m510.6 660.8c-9.2-1.2-22.9 8.1-25.6 16.9-1.2 3.3-1.5 6.5-1.5 10.4v488c-1.2 8.9 8.1 22.9 16.9 25.2 3.3 1.5 6.5 2.3 10.4 2.3h106.5c9.2 1.2 22.9-8.1 25.6-16.9 1.2-3.3 1.5-7.1 1.5-10.4v-488.2c1.2-8.9-8.1-22.9-16.9-25.2-3.3-1.5-6.5-2.3-10.4-2.3"/><path class="c" d="m483.4 916.5v-42.2l161.2 73.2v42"/><path class="a" d="m274.3 651.9c-5 0-9.8 1.2-14.3 2.7-3.9 1.5-8.3 4.4-11.6 7.7-7.1 7.1-10.4 16.9-10.4 25.6v488c0 5 1.2 9.2 2.7 13.7 1.5 4.4 4.4 8.1 7.7 11.6 7.1 7.1 16.4 11 25.6 11h106.5c5 0 9.8-1.2 14.3-2.7 3.9-2.3 8.3-5 11.6-8.1 7.1-6.5 10.4-16.4 10.4-25.2v-488c0-5-1.2-9.2-2.7-13.7-1.5-4.4-4.4-8.3-7.7-11.9-7.1-6.5-16.4-10.4-25.6-10.4"/><path class="b" d="m274.3 660.8c-9.2-1.2-22.9 8.1-25.6 16.9-1.2 3.3-1.5 6.5-1.5 10.4v488c-1.2 8.9 8.3 22.9 16.9 25.2 3.3 1.5 6.5 2.3 10.4 2.3h106.5c9.2 1.2 22.9-8.3 25.6-16.9 1.2-3.3 1.5-7.1 1.5-10.4v-488.2c1.2-8.9-8.3-22.9-16.9-25.2-3.3-1.5-6.5-2.3-10.4-2.3"/><path class="c" d="m246.9 958.5v-42l161.2 73v42.2"/><path class="c" d="m246.9 874.3v-42.1l161.2 72.7v42"/><path  d="m49.2 594.2l-5.3 2.6-0.9-4.1 6.9-3.4h4.5v28.3h-5.2z"/><path  d="m64.5 614.8c0-2 1.4-3.4 3.3-3.4 2 0 3.3 1.4 3.3 3.4 0 2-1.3 3.4-3.3 3.4-2 0-3.3-1.5-3.3-3.4z"/><path fill-rule="evenodd" d="m86.2 610.5h-12.8v-3.5l11.6-17.6h6.3v17.1h3.7v4.1h-3.7v7.2h-5.1zm0-11.7c0-1.6 0-3.3 0.2-4.9h-0.2c-0.9 1.8-1.6 3.2-2.5 4.8l-5.2 7.8v0.1h7.7z"/><path  d="m98.1 614.8c0-2 1.4-3.4 3.3-3.4 2 0 3.3 1.4 3.3 3.4 0 2-1.3 3.4-3.3 3.4-1.9 0-3.3-1.5-3.3-3.4z"/><path  d="m116.4 594.2l-5.3 2.6-0.9-4.1 6.9-3.4h4.5v28.3h-5.2z"/><path  d="m131.7 614.8c0-2 1.4-3.4 3.3-3.4 2 0 3.3 1.4 3.3 3.4 0 2-1.3 3.4-3.3 3.4-1.9 0-3.3-1.5-3.3-3.4z"/><path  d="m285.5 594.2l-5.3 2.6-0.9-4.1 6.9-3.4h4.5v28.3h-5.2z"/><path  d="m300.8 614.8c0-2 1.4-3.4 3.3-3.4 2 0 3.3 1.4 3.3 3.4 0 2-1.3 3.4-3.3 3.4-2 0-3.3-1.5-3.3-3.4z"/><path fill-rule="evenodd" d="m322.5 610.5h-12.8v-3.5l11.5-17.6h6.3v17.1h3.7v4.1h-3.7v7.2h-5zm0-11.7c0-1.6 0-3.3 0.2-4.9h-0.2c-0.9 1.8-1.6 3.2-2.5 4.8l-5.2 7.8v0.1h7.7z"/><path  d="m334.4 614.8c0-2 1.4-3.4 3.3-3.4 2 0 3.3 1.4 3.3 3.4 0 2-1.3 3.4-3.3 3.4-2 0-3.3-1.5-3.3-3.4z"/><path  d="m344.3 617.7v-3.3l3.4-3.1c6.7-6.2 9.8-9.6 9.8-13.3 0-2.5-1.4-4.7-5.1-4.7-2.5 0-4.6 1.3-6.1 2.4l-1.6-3.8c2-1.7 5.1-2.9 8.7-2.9 6.3 0 9.3 4 9.3 8.6 0 5-3.6 9-8.5 13.5l-2.5 2.1v0.1h11.6v4.4z"/><path  d="m368 614.8c0-2 1.4-3.4 3.3-3.4 2 0 3.3 1.4 3.3 3.4 0 2-1.3 3.4-3.3 3.4-1.9 0-3.3-1.5-3.3-3.4z"/><path  d="m523.5 1245.2l-5.3 2.6-0.9-4.1 6.9-3.4h4.5v28.3h-5.2z"/><path  d="m538.8 1265.8c0-2 1.4-3.4 3.3-3.4 2 0 3.3 1.4 3.3 3.4 0 2-1.3 3.4-3.3 3.4-1.9 0-3.3-1.5-3.3-3.4z"/><path fill-rule="evenodd" d="m560.6 1261.5h-12.8v-3.5l11.5-17.6h6.3v17.1h3.7v4.1h-3.7v7.2h-5zm0-11.7c0-1.6 0-3.3 0.2-4.9h-0.2c-0.9 1.8-1.6 3.2-2.5 4.8l-5.2 7.8v0.1h7.7z"/><path  d="m572.5 1265.8c0-2 1.4-3.4 3.3-3.4 2 0 3.3 1.4 3.3 3.4 0 2-1.3 3.4-3.3 3.4-2 0-3.3-1.5-3.3-3.4z"/><path fill-rule="evenodd" d="m599.6 1244.2c-0.8 0-1.7 0-2.7 0.1-5.9 0.7-8.8 4.4-9.5 8.3h0.1c1.4-1.6 3.5-2.7 6.4-2.7 4.9 0 8.7 3.5 8.7 9.2 0 5.4-4 10.1-10 10.1-6.9 0-10.7-5.2-10.7-12.2 0-5.4 2-9.9 4.9-12.7 2.6-2.4 6-3.8 10.1-4.2 1.2-0.1 2-0.1 2.7-0.1zm-2.5 15.2c0-3.3-1.8-5.6-4.9-5.6-2 0-3.8 1.2-4.6 2.9-0.2 0.4-0.3 1-0.3 1.7 0.1 3.7 1.9 6.8 5.3 6.8 2.7 0 4.5-2.4 4.5-5.8z"/><path  d="m606.1 1265.8c0-2 1.4-3.4 3.3-3.4 2 0 3.3 1.4 3.3 3.4 0 2-1.3 3.4-3.3 3.4-2 0-3.3-1.5-3.3-3.4z"/><path  d="m287.3 1245.2l-5.3 2.6-0.9-4.1 6.9-3.4h4.5v28.3h-5.2z"/><path  d="m302.5 1265.8c0-2 1.4-3.4 3.3-3.4 2 0 3.3 1.4 3.3 3.4 0 2-1.3 3.4-3.3 3.4-1.9 0-3.3-1.5-3.3-3.4z"/><path fill-rule="evenodd" d="m324.3 1261.5h-12.8v-3.5l11.5-17.6h6.3v17.1h3.7v4.1h-3.7v7.2h-5zm0-11.7c0-1.6 0-3.3 0.2-4.9h-0.2c-0.9 1.8-1.6 3.2-2.5 4.8l-5.2 7.8v0.1h7.7z"/><path  d="m336.2 1265.8c0-2 1.4-3.4 3.3-3.4 2 0 3.3 1.4 3.3 3.4 0 2-1.3 3.4-3.3 3.4-2 0-3.3-1.5-3.3-3.4z"/><path  d="m364.1 1244.8h-10.9l-0.8 5.7c0.7-0.1 1.2-0.1 2-0.1 2.5 0 5 0.6 6.9 1.8 2.1 1.4 3.7 3.7 3.7 7.2 0 5.4-4.5 9.8-11.5 9.8-3.3 0-6-0.8-7.5-1.7l1.1-4.1c1.2 0.7 3.7 1.5 6.2 1.5 3.1 0 6.1-1.8 6.1-5.2 0-3.2-2.4-5.4-8.1-5.4-1.6 0-2.7 0.1-3.9 0.3l1.9-14.3h14.6v4.5z"/><path  d="m369.8 1265.8c0-2 1.4-3.4 3.3-3.4 2 0 3.3 1.4 3.3 3.4 0 2-1.3 3.4-3.3 3.4-1.9 0-3.3-1.5-3.3-3.4z"/><path  d="m49 1245.2l-5.3 2.6-0.9-4.1 6.9-3.4h4.5v28.3h-5.2z"/><path  d="m64.3 1265.8c0-2 1.4-3.4 3.3-3.4 2 0 3.3 1.4 3.3 3.4 0 2-1.3 3.4-3.3 3.4-2 0-3.3-1.5-3.3-3.4z"/><path fill-rule="evenodd" d="m86 1261.5h-12.8v-3.5l11.5-17.6h6.3v17.1h3.7v4.1h-3.7v7.2h-5zm0-11.7c0-1.6 0-3.3 0.2-4.9h-0.2c-0.9 1.8-1.6 3.2-2.5 4.8l-5.2 7.8v0.1h7.7z"/><path  d="m97.9 1265.8c0-2 1.4-3.4 3.3-3.4 2 0 3.3 1.4 3.3 3.4 0 2-1.3 3.4-3.3 3.4-2 0-3.3-1.5-3.3-3.4z"/><path fill-rule="evenodd" d="m119.6 1261.5h-12.8v-3.5l11.5-17.6h6.3v17.1h3.7v4.1h-3.7v7.2h-5zm0-11.7c0-1.6 0-3.3 0.2-4.9h-0.2c-0.9 1.8-1.6 3.2-2.5 4.8l-5.2 7.8v0.1h7.7z"/><path  d="m131.5 1265.8c0-2 1.4-3.4 3.3-3.4 2 0 3.3 1.4 3.3 3.4 0 2-1.3 3.4-3.3 3.4-1.9 0-3.3-1.5-3.3-3.4z"/><path  d="m521.6 594.2l-5.3 2.6-0.9-4.1 6.9-3.4h4.5v28.3h-5.2z"/><path  d="m536.9 614.8c0-2 1.4-3.4 3.3-3.4 2 0 3.3 1.4 3.3 3.4 0 2-1.3 3.4-3.3 3.4-2 0-3.3-1.5-3.3-3.4z"/><path fill-rule="evenodd" d="m558.6 610.5h-12.8v-3.5l11.5-17.6h6.3v17.1h3.7v4.1h-3.7v7.2h-5zm0-11.7c0-1.6 0-3.3 0.2-4.9h-0.2c-0.9 1.8-1.6 3.2-2.5 4.8l-5.2 7.8v0.1h7.7z"/><path  d="m570.5 614.8c0-2 1.4-3.4 3.3-3.4 2 0 3.3 1.4 3.3 3.4 0 2-1.3 3.4-3.3 3.4-2 0-3.3-1.5-3.3-3.4z"/><path  d="m581.5 612.2c1.1 0.7 3.7 1.7 6.4 1.7 4.1 0 5.8-2.3 5.7-4.5 0-3.4-3.1-4.8-6.4-4.8h-2.5v-3.9h2.4c2.5 0 5.6-1.1 5.6-4 0-1.9-1.4-3.5-4.5-3.5-2.3 0-4.6 1-5.8 1.8l-1.2-3.9c1.6-1.1 4.7-2.2 8.1-2.2 5.8 0 8.8 3.2 8.8 6.9 0 3-1.7 5.4-5.2 6.6v0.1c3.4 0.6 6.2 3.2 6.2 7.1 0 4.8-4 8.6-11 8.6-3.4 0-6.4-1-7.9-2z"/><path  d="m604.1 614.8c0-2 1.4-3.4 3.3-3.4 2 0 3.3 1.4 3.3 3.4 0 2-1.3 3.4-3.3 3.4-1.9 0-3.3-1.5-3.3-3.4z"/></svg>