<svg version="1.2" xmlns="http://www.w3.org/2000/svg" viewBox="0 0 1629 1215" width="1629" height="1215"><style>.a{fill:#fff;stroke:#000;stroke-width:2}.b{fill:#f00}.c{fill:#1c1d20}</style><path class="a" d="m1.6 417.3c0-6.2 1.6-12.4 4.8-17.8l219.9-380.7c9.8-17 31.5-22.8 48.6-13 5.4 3.2 9.9 7.6 13 13l219.9 380.8c3.2 5.4 4.8 11.6 4.8 17.8 0 19.6-15.9 35.6-35.6 35.6h-439.8c-19.7-0.1-35.6-16.1-35.6-35.7z"/><path fill-rule="evenodd" class="b" d="m271.2 12.1c4.2 2.5 7.8 6 10.3 10.3l219.7 380.8c7.9 13.5 3.3 30.8-10.3 38.6-4.2 2.5-9.1 3.8-14.1 3.8h-439.7c-4.9 0-9.8-1.3-14.1-3.8-13.5-7.7-18.1-25-10.3-38.6l219.8-380.8c5.2-8.8 14.4-13.9 23.9-14.1 5-0.1 10.1 1.1 14.8 3.8zm-21.2 48.9l-195.2 338c-0.7 1.2-1.1 2.5-1.1 4 0 4.5 3.7 8.1 8.1 8.1h390.4c1.4 0 2.8-0.4 4-1.1 3.9-2.2 5.3-7.1 3-11l-195.2-338.1c-0.7-1.2-1.8-2.2-3-2.9-1.4-0.9-3.1-1.2-4.6-1.1-2.6 0.3-5 1.6-6.4 4.1z"/><path class="c" d="m227.1 156.5h59.9v234.8h-59.9z"/><path class="c" d="m251.8 251.1h106.1v27.9h-106.1z"/><path class="a" d="m557.9 417.3c0-6.2 1.6-12.4 4.8-17.8l219.8-380.7c9.8-17 31.5-22.8 48.6-13 5.4 3.2 9.9 7.6 13 13l219.9 380.7c3.2 5.4 4.8 11.6 4.8 17.8 0 19.6-15.9 35.6-35.6 35.6h-439.7c-19.7 0-35.6-16-35.6-35.6z"/><path fill-rule="evenodd" class="b" d="m827.5 12.1c4.2 2.5 7.8 6 10.3 10.3l219.7 380.8c7.9 13.5 3.3 30.8-10.3 38.6-4.2 2.5-9.1 3.8-14.1 3.8h-439.7c-4.9 0-9.8-1.3-14.1-3.8-13.5-7.7-18.1-25-10.3-38.6l219.8-380.8c5.2-8.8 14.4-13.9 23.9-14.1 5-0.1 10.1 1.1 14.8 3.8zm-21.2 48.9l-195.2 338c-0.7 1.2-1.1 2.5-1.1 4 0 4.5 3.7 8.1 8.1 8.1h390.4c1.4 0 2.8-0.4 4-1.1 3.9-2.2 5.3-7.1 3-11l-195.2-338.1c-0.7-1.2-1.8-2.2-3-2.9-1.4-0.9-3.1-1.2-4.6-1.1-2.6 0.3-5 1.6-6.4 4.1z"/><path class="c" d="m783.4 156.5h59.9v234.8h-59.9z"/><path class="c" d="m712.5 251.1h102.7v27.9h-102.7z"/><path class="a" d="m1114.2 417.3c0-6.2 1.6-12.4 4.8-17.8l219.9-380.8c9.8-17 31.5-22.8 48.6-13 5.4 3.2 9.9 7.6 13 13l219.9 380.8c3.2 5.4 4.8 11.6 4.8 17.8 0 19.6-15.9 35.6-35.6 35.6h-439.7c-19.8 0-35.7-16-35.7-35.6z"/><path fill-rule="evenodd" class="b" d="m1383.8 12.1c4.2 2.5 7.8 6 10.3 10.3l219.7 380.8c7.9 13.5 3.3 30.8-10.3 38.6-4.2 2.5-9.1 3.8-14.1 3.8h-439.7c-4.9 0-9.8-1.3-14.1-3.8-13.5-7.7-18.1-25-10.3-38.6l219.8-380.8c5.2-8.8 14.4-13.9 23.9-14.1 5-0.1 10.1 1.1 14.8 3.8zm-21.2 48.9l-195.2 338c-0.7 1.2-1.1 2.5-1.1 4 0 4.5 3.7 8.1 8.1 8.1h390.4c1.4 0 2.8-0.4 4-1.1 3.9-2.2 5.3-7.1 3-11l-195.2-338.1c-0.7-1.2-1.8-2.2-3-2.9-1.4-0.9-3.1-1.2-4.6-1.1-2.6 0.3-5 1.6-6.4 4.1z"/><path class="c" d="m1339.7 156.5h59.9v234.8h-59.9z"/><path class="c" d="m1367 276l88.7-51.9 14 24.1-88.6 51.9z"/><path class="a" d="m0.5 1056.3c0-6.2 1.6-12.4 4.8-17.8l219.9-380.8c9.8-17 31.5-22.8 48.6-13 5.4 3.2 9.9 7.6 13 13l219.9 380.8c3.2 5.4 4.8 11.6 4.8 17.8 0 19.6-15.9 35.6-35.6 35.6h-439.9c-19.6 0-35.5-16-35.5-35.6z"/><path fill-rule="evenodd" class="b" d="m270.1 651.1c4.2 2.5 7.8 6 10.3 10.3l219.7 380.8c7.9 13.5 3.3 30.8-10.3 38.6-4.2 2.5-9.1 3.8-14.1 3.8h-439.7c-4.9 0-9.8-1.3-14.1-3.8-13.5-7.7-18.1-25-10.3-38.6l219.8-380.8c5.2-8.8 14.4-13.9 23.9-14.1 5-0.1 10.1 1.1 14.8 3.8zm-21.2 48.9l-195.2 338c-0.7 1.2-1.1 2.5-1.1 4 0 4.5 3.7 8.1 8.1 8.1h390.4c1.4 0 2.8-0.4 4-1.1 3.9-2.2 5.3-7.1 3-11l-195.2-338.1c-0.7-1.2-1.8-2.2-3-2.9-1.4-0.9-3.1-1.2-4.6-1.1-2.6 0.3-5.1 1.6-6.4 4.1z"/><path class="c" d="m225.9 795.5h59.9v234.8h-59.9z"/><path class="c" d="m246.1 939.1l-88.6-51.9 14.1-24 88.6 51.8z"/><path class="a" d="m558.8 1056.3c0-6.2 1.6-12.4 4.8-17.8l219.9-380.8c9.8-17 31.5-22.8 48.6-13 5.4 3.2 9.9 7.6 13 13l219.9 380.8c3.2 5.4 4.8 11.6 4.8 17.8 0 19.6-15.9 35.6-35.6 35.6h-439.7c-19.8 0-35.7-16-35.7-35.6z"/><path fill-rule="evenodd" class="b" d="m828.4 651.1c4.2 2.5 7.8 6 10.3 10.3l219.7 380.8c7.9 13.5 3.3 30.8-10.3 38.6-4.2 2.5-9.1 3.8-14.1 3.8h-439.8c-4.9 0-9.8-1.3-14.1-3.8-13.5-7.7-18.1-25-10.3-38.6l219.8-380.8c5.2-8.8 14.4-13.9 23.9-14.1 5.1-0.1 10.1 1.1 14.9 3.8zm-21.2 48.9l-195.2 338c-0.7 1.2-1.1 2.5-1.1 4 0 4.5 3.7 8.1 8.1 8.1h390.4c1.4 0 2.8-0.4 4-1.1 3.9-2.2 5.3-7.1 3-11l-195.3-338.1c-0.7-1.2-1.8-2.2-3-2.9-1.4-0.9-3.1-1.2-4.6-1.1-2.5 0.3-5 1.6-6.3 4.1z"/><path class="c" d="m784.2 795.5h59.9v234.8h-59.9z"/><path class="c" d="m825.7 918.9l109 63.8-14.1 24.1-109-63.8z"/><path class="a" d="m1112 1056.3c0-6.2 1.6-12.4 4.8-17.8l219.9-380.8c9.8-17 31.5-22.8 48.6-13 5.4 3.2 9.9 7.6 13 13l219.9 380.8c3.2 5.4 4.8 11.6 4.8 17.8 0 19.6-15.9 35.6-35.6 35.6h-439.7c-19.7 0-35.7-16-35.7-35.6z"/><path fill-rule="evenodd" class="b" d="m1381.7 651.1c4.2 2.5 7.8 6 10.3 10.3l219.6 380.8c7.9 13.5 3.3 30.8-10.3 38.6-4.2 2.5-9.1 3.8-14.1 3.8h-439.7c-4.9 0-9.8-1.3-14.1-3.8-13.5-7.7-18.1-25-10.3-38.6l219.8-380.8c5.2-8.8 14.4-13.9 23.9-14.1 5-0.1 10.1 1.1 14.9 3.8zm-21.3 48.9l-195.2 338c-0.7 1.2-1.1 2.5-1.1 4 0 4.5 3.7 8.1 8.1 8.1h390.4c1.4 0 2.8-0.4 4-1.1 3.9-2.2 5.3-7.1 3-11l-195.2-338.1c-0.7-1.2-1.8-2.2-3-2.9-1.4-0.9-3.1-1.2-4.6-1.1-2.6 0.3-5 1.6-6.4 4.1z"/><path class="c" d="m1340.5 795.5h59.9v234.8h-59.9z"/><path class="c" d="m1367.5 943l-109 63.8-14-24.1 108.9-63.8z"/><path  d="m164.3 507.8h-0.2l-12 6-2.1-9.4 15.9-7.8h10.4v65.4h-12z"/><path  d="m199.6 555.2c0-4.6 3.2-7.9 7.6-7.9 4.5 0 7.6 3.2 7.6 7.9 0 4.5-3 7.9-7.6 7.9-4.5 0-7.6-3.4-7.6-7.9z"/><path  d="m267.5 496.6v7.9l-27.6 57.5h-13.1l27.6-54.9v-0.2h-30.8v-10.3z"/><path  d="m277.3 555.2c0-4.6 3.2-7.9 7.6-7.9 4.5 0 7.6 3.2 7.6 7.9 0 4.5-3 7.9-7.6 7.9-4.5 0-7.6-3.4-7.6-7.9z"/><path  d="m300.2 562v-7.5l7.7-7.1c15.4-14.3 22.6-22.1 22.7-30.8 0-5.8-3.1-11-11.7-11-5.7 0-10.7 2.9-14 5.4l-3.6-8.8c4.7-3.8 11.9-6.7 20.1-6.7 14.5 0 21.5 9.2 21.5 19.8 0 11.5-8.2 20.7-19.6 31.3l-5.7 4.9v0.2h26.9v10.3z"/><path  d="m354.9 555.2c0-4.6 3.2-7.9 7.6-7.9 4.5 0 7.6 3.2 7.6 7.9 0 4.5-3 7.9-7.6 7.9-4.5 0-7.6-3.4-7.6-7.9z"/><path  d="m720.6 507.8h-0.2l-12 6-2.1-9.4 15.9-7.8h10.4v65.4h-12z"/><path  d="m755.9 555.2c0-4.6 3.2-7.9 7.6-7.9 4.5 0 7.6 3.2 7.6 7.9 0 4.5-3 7.9-7.6 7.9-4.5 0-7.6-3.4-7.6-7.9z"/><path  d="m823.8 496.6v7.9l-27.7 57.5h-13.1l27.6-54.9v-0.2h-30.8v-10.3z"/><path  d="m833.5 555.2c0-4.6 3.2-7.9 7.6-7.9 4.5 0 7.6 3.2 7.6 7.9 0 4.5-3 7.9-7.6 7.9-4.4 0-7.6-3.4-7.6-7.9z"/><path  d="m859 549.2c2.5 1.5 8.6 4 14.9 4 9.5 0 13.3-5.3 13.2-10.5 0-7.7-7.2-11.1-14.8-11.1h-5.7v-9.1h5.5c5.7 0 13-2.6 13-9.2 0-4.4-3.3-8.1-10.5-8.1-5.3 0-10.7 2.3-13.4 4.1l-2.8-9c3.7-2.6 11-5 18.8-5 13.5 0 20.4 7.4 20.4 16 0 6.8-4 12.5-12.1 15.3v0.2c7.9 1.4 14.4 7.4 14.4 16.3 0 11.1-9.3 19.8-25.4 19.8-7.9 0-14.8-2.2-18.3-4.5z"/><path  d="m911.2 555.2c0-4.6 3.2-7.9 7.6-7.9 4.5 0 7.6 3.2 7.6 7.9 0 4.5-3 7.9-7.6 7.9-4.5 0-7.6-3.4-7.6-7.9z"/><path  d="m1276.9 507.8h-0.2l-12 6-2.1-9.4 15.9-7.8h10.4v65.4h-12z"/><path  d="m1312.2 555.2c0-4.6 3.2-7.9 7.6-7.9 4.5 0 7.6 3.2 7.6 7.9 0 4.5-3 7.9-7.6 7.9-4.5 0-7.6-3.4-7.6-7.9z"/><path  d="m1380.1 496.6v7.9l-27.7 57.4h-13.1l27.6-54.9v-0.2h-30.8v-10.3h44z"/><path  d="m1389.8 555.2c0-4.6 3.2-7.9 7.6-7.9 4.5 0 7.6 3.2 7.6 7.9 0 4.5-3 7.9-7.6 7.9-4.4 0-7.6-3.4-7.6-7.9z"/><path fill-rule="evenodd" d="m1440 562v-16.6h-29.6v-8l26.7-40.7h14.6v39.4h8.4v9.4h-8.4v16.5zm0-25.9v-17.8c0-3.7 0.1-7.5 0.4-11.4h-0.4c-2 4.1-3.7 7.4-5.7 11.1l-12 17.9-0.1 0.2z"/><path  d="m1467.5 555.2c0-4.6 3.2-7.9 7.6-7.9 4.5 0 7.6 3.2 7.6 7.9 0 4.5-3 7.9-7.6 7.9-4.5 0-7.6-3.4-7.6-7.9z"/><path  d="m165.2 1152.8h-0.2l-12 6-2.1-9.4 15.9-7.8h10.4v65.4h-12z"/><path  d="m200.5 1200.2c0-4.6 3.2-7.9 7.6-7.9 4.5 0 7.6 3.2 7.6 7.9 0 4.5-3 7.9-7.6 7.9-4.5 0-7.6-3.4-7.6-7.9z"/><path  d="m268.4 1141.6v7.9l-27.7 57.4h-13.1l27.6-54.9v-0.2h-30.8v-10.3h44z"/><path  d="m278.1 1200.2c0-4.6 3.2-7.9 7.6-7.9 4.5 0 7.6 3.2 7.6 7.9 0 4.5-3 7.9-7.6 7.9-4.5 0-7.6-3.4-7.6-7.9z"/><path  d="m342.6 1151.9h-25.1l-1.9 13.1c1.5-0.2 2.8-0.3 4.7-0.3 5.7 0 11.5 1.3 15.9 4.2 4.9 3.1 8.5 8.6 8.5 16.6 0 12.5-10.4 22.6-26.5 22.6-7.5 0-13.9-1.9-17.3-3.8l2.5-9.4c2.8 1.5 8.4 3.4 14.4 3.4 7.2 0 14.2-4.1 14.2-12 0-7.4-5.5-12.4-18.6-12.4-3.6 0-6.3 0.2-9 0.6l4.3-33h33.8v10.4z"/><path  d="m355.8 1200.2c0-4.6 3.2-7.9 7.6-7.9 4.5 0 7.6 3.2 7.6 7.9 0 4.5-3 7.9-7.6 7.9-4.5 0-7.6-3.4-7.6-7.9z"/><path  d="m721.5 1146.8h-0.2l-12 6-2.1-9.4 15.9-7.8h10.4v65.4h-12z"/><path  d="m756.8 1194.2c0-4.6 3.2-7.9 7.6-7.9 4.5 0 7.6 3.2 7.6 7.9 0 4.5-3 7.9-7.6 7.9-4.5 0-7.6-3.4-7.6-7.9z"/><path  d="m824.7 1135.6v7.9l-27.7 57.5h-13.1l27.6-54.9v-0.2h-30.8v-10.3z"/><path  d="m834.4 1194.2c0-4.6 3.2-7.9 7.6-7.9 4.5 0 7.6 3.2 7.6 7.9 0 4.5-3 7.9-7.6 7.9-4.5 0-7.6-3.4-7.6-7.9z"/><path fill-rule="evenodd" d="m897.2 1144.4c-1.8 0-3.8 0-6.3 0.3-13.7 1.6-20.3 10.1-21.9 19.1h0.3c3.2-3.7 8.1-6.3 14.7-6.3 11.3 0 20 8 20 21.3 0 12.5-9.2 23.3-23 23.3-15.9 0-24.6-12.1-24.6-28.2 0-12.6 4.5-22.8 11.4-29.4 6-5.6 13.9-8.9 23.2-9.7 2.7-0.3 4.7-0.3 6.2-0.2zm-5.9 35.1c0-7.5-4.1-13-11.4-13-4.6 0-8.8 2.8-10.7 6.7-0.5 1-0.8 2.2-0.8 3.9 0.2 8.6 4.3 15.7 12.3 15.7 6.5 0.1 10.6-5.5 10.6-13.3z"/><path  d="m912 1194.2c0-4.6 3.2-7.9 7.6-7.9 4.5 0 7.6 3.2 7.6 7.9 0 4.5-3 7.9-7.6 7.9-4.4 0-7.6-3.4-7.6-7.9z"/><path  d="m1274.8 1146.8h-0.2l-12 6-2.1-9.4 15.9-7.8h10.4v65.4h-12z"/><path  d="m1310.1 1194.2c0-4.6 3.2-7.9 7.6-7.9 4.5 0 7.6 3.2 7.6 7.9 0 4.5-3 7.9-7.6 7.9-4.5 0-7.6-3.4-7.6-7.9z"/><path  d="m1377.9 1135.6v7.9l-27.7 57.4h-13.1l27.6-54.9v-0.2h-30.7v-10.3h43.9z"/><path  d="m1387.7 1194.2c0-4.6 3.2-7.9 7.6-7.9 4.5 0 7.6 3.2 7.6 7.9 0 4.5-3 7.9-7.6 7.9-4.5 0-7.6-3.4-7.6-7.9z"/><path  d="m1455.6 1135.6v7.9l-27.7 57.4h-13.1l27.6-54.9v-0.2h-30.8v-10.3h44z"/><path  d="m1465.3 1194.2c0-4.6 3.2-7.9 7.6-7.9 4.5 0 7.6 3.2 7.6 7.9 0 4.5-3 7.9-7.6 7.9-4.5 0-7.6-3.4-7.6-7.9z"/></svg>